# xmcd CD Database Entry
#
# Track frame offsets:
# 150
# 23350
# 38462
# 57042
# 73527
# 93425
# 109412
# 127750
# 142320
# 161209
# 181652
# 201277
#
# Disc length: 2913 seconds
#
# Revision: 2
# Processed by: cddbd v1.4PL0 Copyright (c) Steve Scherf et al.
# Submitted via: tcd 2.0b
#
DISCID=9c0b5f0c
DTITLE=Enanitos Verdes - Tracción Acústica
DYEAR=1900
DGENRE=
TTITLE0=Por el Resto de tus Días
TTITLE1=Te Vi en un Tren
TTITLE2=El Guerrero
TTITLE3=La Murralla Verde
TTITLE4=Solo Dame otra Oportunidad
TTITLE5=Guitarras Blancas
TTITLE6=Cada Vez que Digo Adiós
TTITLE7=El Extraño del Pelo Largo
TTITLE8=Tus Viejas Cartas
TTITLE9=No me Verás/Metro Balderas
TTITLE10=Aún Sigo Cantando
TTITLE11=Fiesta Jurásica
EXTD=
EXTT0=
EXTT1=
EXTT2=
EXTT3=
EXTT4=
EXTT5=
EXTT6=
EXTT7=
EXTT8=
EXTT9=
EXTT10=
EXTT11=
PLAYORDER=
